<svg width="39" height="32" viewBox="0 0 39 32" fill="none" xmlns="http://www.w3.org/2000/svg">
<g clip-path="url(#clip0_1_8)">
<path d="M38.7809 16C38.7809 11.7566 37.1465 7.68689 34.2373 4.6863C31.3281 1.68572 27.3824 5.56465e-07 23.2682 0C19.154 -5.56463e-07 15.2083 1.68572 12.2991 4.6863C9.38986 7.68689 7.75549 11.7566 7.75549 16H12.6033C14.2097 16 15.4625 14.6116 16.0509 13.0698C16.4372 12.0576 17.0234 11.1273 17.7836 10.3431C19.2382 8.84287 21.2111 8.00001 23.2682 8.00001C25.3253 8.00001 27.2982 8.84287 28.7528 10.3431C30.2074 11.8434 31.0245 13.8783 31.0245 16H38.7809Z" fill="url(#paint0_linear_1_8)"/>
<path d="M29.8445 22.123C30.6241 20.1817 31.0254 18.1012 31.0254 16.0001H38.7809C38.7809 24.8366 31.8356 32 23.2682 32C21.9265 32 20.6245 31.8244 19.3829 31.4941C20.0854 31.3074 20.7759 31.0697 21.4491 30.7821C23.3312 29.978 25.0413 28.7995 26.4818 27.3138C27.9223 25.828 29.065 24.0642 29.8445 22.123Z" fill="#FBCF8E"/>
<path d="M0 15.9999C-2.91433e-07 18.1011 0.401247 20.1817 1.18083 22.1229C1.96042 24.0642 3.10307 25.828 4.54356 27.3137C5.98404 28.7994 7.69415 29.978 9.57623 30.7821C11.4583 31.5862 13.4755 32 15.5127 32C17.5498 32 19.567 31.5862 21.4491 30.7821C23.3312 29.978 25.0413 28.7994 26.4818 27.3137C27.9223 25.828 29.0649 24.0642 29.8445 22.1229C30.6241 20.1817 31.0254 18.1011 31.0254 15.9999H26.1776C24.5712 15.9999 23.3184 17.3884 22.73 18.9301C22.7133 18.974 22.6961 19.0178 22.6786 19.0615C22.2888 20.0321 21.7175 20.914 20.9972 21.6568C20.277 22.3997 19.4219 22.989 18.4809 23.3911C17.5399 23.7931 16.5313 24 15.5127 24C14.4941 24 13.4855 23.7931 12.5445 23.3911C11.6034 22.989 10.7484 22.3997 10.0281 21.6568C9.30787 20.914 8.73655 20.0321 8.34676 19.0615C7.95696 18.0908 7.75634 17.0505 7.75634 15.9999H0Z" fill="url(#paint1_linear_1_8)"/>
<path d="M0.00158691 16C0.00158691 7.16343 6.94683 0 15.5142 0C16.8556 0 18.1572 0.175594 19.3987 0.505727C16.7348 1.21353 14.2774 2.64594 12.2991 4.68631C9.38992 7.68687 7.75557 11.7566 7.75557 16H0.00158691Z" fill="#73E5E2"/>
</g>
<defs>
<linearGradient id="paint0_linear_1_8" x1="38.7809" y1="8.00001" x2="7.75549" y2="8.00001" gradientUnits="userSpaceOnUse">
<stop stop-color="#73E5E2"/>
<stop offset="1" stop-color="#394F87"/>
</linearGradient>
<linearGradient id="paint1_linear_1_8" x1="1.01712e-06" y1="24" x2="31.0254" y2="24" gradientUnits="userSpaceOnUse">
<stop stop-color="#FBDC8E"/>
<stop offset="1" stop-color="#FB958E"/>
</linearGradient>
<clipPath id="clip0_1_8">
<rect width="39" height="32" fill="white"/>
</clipPath>
</defs>
</svg>
